<?xml version="1.0" encoding="UTF-8" standalone="no"?>
<!-- Created with Inkscape (http://www.inkscape.org/) -->

<svg
   width="500"
   height="500"
   viewBox="0 0 132.29166 132.29167"
   version="1.1"
   id="svg1"
   xml:space="preserve"
   inkscape:version="1.4.2 (ebf0e940d0, 2025-05-08)"
   sodipodi:docname="chat.svg"
   xmlns:inkscape="http://www.inkscape.org/namespaces/inkscape"
   xmlns:sodipodi="http://sodipodi.sourceforge.net/DTD/sodipodi-0.dtd"
   xmlns:xlink="http://www.w3.org/1999/xlink"
   xmlns="http://www.w3.org/2000/svg"
   xmlns:svg="http://www.w3.org/2000/svg"><sodipodi:namedview
     id="namedview1"
     pagecolor="#ffffff"
     bordercolor="#000000"
     borderopacity="0.25"
     inkscape:showpageshadow="2"
     inkscape:pageopacity="0.0"
     inkscape:pagecheckerboard="0"
     inkscape:deskcolor="#d1d1d1"
     inkscape:document-units="px"
     inkscape:zoom="0.70710675"
     inkscape:cx="234.75946"
     inkscape:cy="321.02649"
     inkscape:window-width="1920"
     inkscape:window-height="1008"
     inkscape:window-x="0"
     inkscape:window-y="0"
     inkscape:window-maximized="1"
     inkscape:current-layer="svg1" /><defs
     id="defs1"><linearGradient
       id="linearGradient8"
       inkscape:collect="always"><stop
         style="stop-color:#ffffff;stop-opacity:1;"
         offset="0.79401314"
         id="stop8" /><stop
         style="stop-color:#dedede;stop-opacity:1;"
         offset="1"
         id="stop9" /></linearGradient><linearGradient
       id="linearGradient21"
       inkscape:collect="always"><stop
         style="stop-color:#ffffff;stop-opacity:1;"
         offset="0"
         id="stop21" /><stop
         style="stop-color:#ffffff;stop-opacity:0;"
         offset="0.85797697"
         id="stop22" /></linearGradient><inkscape:path-effect
       effect="bspline"
       id="path-effect204"
       is_visible="true"
       lpeversion="1.3"
       weight="33.333333"
       steps="2"
       helper_size="0"
       apply_no_weight="true"
       apply_with_weight="true"
       only_selected="false"
       uniform="false" /><inkscape:path-effect
       effect="bspline"
       id="path-effect198"
       is_visible="true"
       lpeversion="1.3"
       weight="33.333333"
       steps="2"
       helper_size="0"
       apply_no_weight="true"
       apply_with_weight="true"
       only_selected="false"
       uniform="false" /><inkscape:path-effect
       effect="bspline"
       id="path-effect197"
       is_visible="true"
       lpeversion="1.3"
       weight="33.333333"
       steps="2"
       helper_size="0"
       apply_no_weight="true"
       apply_with_weight="true"
       only_selected="false"
       uniform="false" /><inkscape:path-effect
       effect="bspline"
       id="path-effect195"
       is_visible="true"
       lpeversion="1.3"
       weight="33.333333"
       steps="2"
       helper_size="0"
       apply_no_weight="true"
       apply_with_weight="true"
       only_selected="false"
       uniform="false" /><inkscape:path-effect
       effect="bspline"
       id="path-effect184"
       is_visible="true"
       lpeversion="1.3"
       weight="33.333333"
       steps="2"
       helper_size="0"
       apply_no_weight="true"
       apply_with_weight="true"
       only_selected="false"
       uniform="false" /><inkscape:path-effect
       effect="bspline"
       id="path-effect182"
       is_visible="true"
       lpeversion="1.3"
       weight="33.333333"
       steps="2"
       helper_size="0"
       apply_no_weight="true"
       apply_with_weight="true"
       only_selected="false"
       uniform="false" /><inkscape:path-effect
       effect="bspline"
       id="path-effect181"
       is_visible="true"
       lpeversion="1.3"
       weight="33.333333"
       steps="2"
       helper_size="0"
       apply_no_weight="true"
       apply_with_weight="true"
       only_selected="false"
       uniform="false" /><inkscape:path-effect
       effect="spiro"
       id="path-effect48"
       is_visible="true"
       lpeversion="1" /><filter
       inkscape:label="In and Out"
       inkscape:menu="Shadows and Glows"
       inkscape:menu-tooltip="Inner colorized shadow, outer black shadow"
       style="color-interpolation-filters:sRGB;"
       id="filter179"
       x="-0.064894743"
       y="-0.041184767"
       width="1.1013427"
       height="1.0756397"><feGaussianBlur
         result="result0"
         in="SourceAlpha"
         stdDeviation="1"
         id="feGaussianBlur179" /><feOffset
         dx="-2"
         dy="-0.5"
         result="result4"
         id="feOffset179" /><feComposite
         in="SourceGraphic"
         in2="result4"
         operator="xor"
         result="result3"
         id="feComposite179" /></filter><linearGradient
       id="linearGradient16"
       inkscape:collect="always"><stop
         style="stop-color:#004eb4;stop-opacity:1;"
         offset="0"
         id="stop14" /><stop
         style="stop-color:#2673d9;stop-opacity:1;"
         offset="0.45484024"
         id="stop15" /><stop
         style="stop-color:#4d99ff;stop-opacity:1;"
         offset="1"
         id="stop16" /></linearGradient><linearGradient
       inkscape:collect="always"
       xlink:href="#linearGradient16"
       id="linearGradient11"
       x1="47.140659"
       y1="11.58062"
       x2="93.332954"
       y2="67.930801"
       gradientUnits="userSpaceOnUse" /><linearGradient
       inkscape:collect="always"
       xlink:href="#linearGradient16"
       id="linearGradient13"
       x1="54.95982"
       y1="95.735336"
       x2="99.201012"
       y2="95.735336"
       gradientUnits="userSpaceOnUse" /><linearGradient
       inkscape:collect="always"
       xlink:href="#linearGradient16"
       id="linearGradient18"
       x1="84.474731"
       y1="109.22289"
       x2="110.33255"
       y2="109.22289"
       gradientUnits="userSpaceOnUse" /><linearGradient
       inkscape:collect="always"
       xlink:href="#linearGradient16"
       id="linearGradient19"
       gradientUnits="userSpaceOnUse"
       x1="55.621277"
       y1="65.308289"
       x2="90.436699"
       y2="114.25615" /><linearGradient
       inkscape:collect="always"
       xlink:href="#linearGradient16"
       id="linearGradient20"
       gradientUnits="userSpaceOnUse"
       x1="85.632278"
       y1="94.836189"
       x2="108.51354"
       y2="119.31012" /><linearGradient
       inkscape:collect="always"
       xlink:href="#linearGradient21"
       id="linearGradient23"
       gradientUnits="userSpaceOnUse"
       x1="55.621277"
       y1="65.308289"
       x2="90.436699"
       y2="114.25615"
       gradientTransform="matrix(0.74143288,0,0,0.74143288,16.192134,25.786321)" /><linearGradient
       inkscape:collect="always"
       xlink:href="#linearGradient21"
       id="linearGradient27"
       x1="56.593391"
       y1="38.967571"
       x2="79.700386"
       y2="66.761108"
       gradientUnits="userSpaceOnUse"
       gradientTransform="matrix(0.86149319,0,0,0.77911739,6.5110169,9.9840858)" /><linearGradient
       inkscape:collect="always"
       xlink:href="#linearGradient21"
       id="linearGradient29"
       x1="64.183456"
       y1="16.782993"
       x2="74.415596"
       y2="34.492146"
       gradientUnits="userSpaceOnUse"
       gradientTransform="matrix(0.87399385,0,0,0.87399385,8.732909,0.89384463)" /><linearGradient
       inkscape:collect="always"
       xlink:href="#linearGradient21"
       id="linearGradient31"
       x1="82.942848"
       y1="18.98793"
       x2="91.415169"
       y2="37.680927"
       gradientUnits="userSpaceOnUse"
       gradientTransform="matrix(0.83598534,0,0,0.83598534,15.166157,2.8422692)" /><radialGradient
       inkscape:collect="always"
       xlink:href="#linearGradient21"
       id="radialGradient33"
       cx="69.640388"
       cy="22.273956"
       fx="69.640388"
       fy="22.273956"
       r="5.331286"
       gradientTransform="matrix(0.9777573,0.28686565,-0.39315849,1.3400477,9.8134143,-29.220522)"
       gradientUnits="userSpaceOnUse" /><radialGradient
       inkscape:collect="always"
       xlink:href="#linearGradient21"
       id="radialGradient34"
       cx="89.633919"
       cy="25.218969"
       fx="89.633919"
       fy="25.218969"
       r="6.1116142"
       gradientTransform="matrix(0.66590091,0.40472349,-0.61610466,1.0136912,46.503417,-39.01449)"
       gradientUnits="userSpaceOnUse" /><radialGradient
       inkscape:collect="always"
       xlink:href="#linearGradient21"
       id="radialGradient35"
       cx="65.224457"
       cy="48.114521"
       fx="65.224457"
       fy="48.114521"
       r="15.231604"
       gradientTransform="matrix(0.76597079,0.46494394,-0.47735666,0.64321579,36.583023,-13.423678)"
       gradientUnits="userSpaceOnUse" /><radialGradient
       inkscape:collect="always"
       xlink:href="#linearGradient21"
       id="radialGradient36"
       cx="70.561996"
       cy="91.321289"
       fx="70.561996"
       fy="91.321289"
       r="16.400936"
       gradientTransform="matrix(0.88868776,0.32818494,-0.46839786,1.2683684,49.31664,-49.117681)"
       gradientUnits="userSpaceOnUse" /><linearGradient
       inkscape:collect="always"
       xlink:href="#linearGradient21"
       id="linearGradient36"
       gradientUnits="userSpaceOnUse"
       x1="96.789413"
       y1="98.138702"
       x2="108.51354"
       y2="119.31012"
       gradientTransform="matrix(0.65501954,0,0,0.65501954,37.405734,36.026117)" /><radialGradient
       inkscape:collect="always"
       xlink:href="#linearGradient21"
       id="radialGradient37"
       cx="102.02675"
       cy="94.794083"
       fx="102.02675"
       fy="94.794083"
       r="8.0511265"
       gradientTransform="matrix(0.30544383,0.0661516,-0.13193024,0.60916562,87.359774,33.907198)"
       gradientUnits="userSpaceOnUse" /><linearGradient
       inkscape:collect="always"
       xlink:href="#linearGradient16"
       id="linearGradient7"
       x1="17.212158"
       y1="22.590956"
       x2="57.865189"
       y2="43.844028"
       gradientUnits="userSpaceOnUse"
       gradientTransform="matrix(1.2659177,0,0,1.7158672,-19.004808,-35.578314)" /><radialGradient
       inkscape:collect="always"
       xlink:href="#linearGradient8"
       id="radialGradient9"
       cx="33.218227"
       cy="24.050884"
       fx="33.218227"
       fy="24.050884"
       r="25.631149"
       gradientTransform="matrix(1,0,0,0.64556964,0,8.5243635)"
       gradientUnits="userSpaceOnUse" /><linearGradient
       inkscape:collect="always"
       xlink:href="#linearGradient16"
       id="linearGradient22"
       x1="26.487888"
       y1="22.463385"
       x2="39.948566"
       y2="25.307655"
       gradientUnits="userSpaceOnUse"
       gradientTransform="matrix(2.2231037,0,0,2.2231037,-40.629336,-29.416724)" /></defs><g
     id="g22"
     transform="matrix(1.0750103,0,0,1.0750103,1.139997,0.93895132)"><g
       id="g9"
       inkscape:label="puppet"
       transform="matrix(1.0428807,0,0,1.0428807,3.7176864,-12.565564)"><path
         id="path39"
         style="fill:none;stroke:#1b56a8;stroke-width:2.33861;stroke-linecap:round;stroke-linejoin:round;stroke-dasharray:none;stroke-opacity:1"
         inkscape:label="contour"
         d="m 73.468089,13.982744 c -0.06429,-0.0023 -0.128341,0.0036 -0.192295,0.01736 -3.885828,0.837847 -8.351211,17.471415 -9.395987,27.27079 -4.096752,3.344005 -6.796105,8.448948 -8.324888,13.933887 -0.198137,0.710872 -0.327881,1.409471 -0.394183,2.093782 a 4.2039465,1.4086858 10.651593 0 0 -0.983858,-0.220157 4.2039465,1.4086858 10.651593 0 0 -4.320483,0.646314 4.2039465,1.4086858 10.651593 0 0 3.950965,2.15042 4.2039465,1.4086858 10.651593 0 0 1.429655,0.172655 c 0.008,0.05103 0.016,0.102191 0.02466,0.153014 a 1.3901922,4.2598712 68.715276 0 0 -1.209954,0.387789 1.3901922,4.2598712 68.715276 0 0 -3.614334,2.848348 1.3901922,4.2598712 68.715276 0 0 4.353369,-0.154384 1.3901922,4.2598712 68.715276 0 0 1.230509,-0.538519 c 2.098253,4.846146 7.560317,8.415885 13.73748,9.770073 -8.405263,10.446681 -15.723868,29.429104 -14.703525,41.024254 1.101424,12.51655 23.67949,16.51505 37.276093,9.3599 2.394552,-1.17445 5.314775,-2.81166 8.707187,-4.68086 13.6296,-7.50983 9.09767,-25.356643 6.06302,-24.546679 -4.63632,1.237477 3.8121,13.622319 -7.921564,16.499959 0.489104,-13.395883 -7.638912,-32.959408 -12.287728,-40.65611 1.963569,-1.484656 3.569524,-3.386934 4.817436,-5.627269 a 4.9055619,1.415066 17.822489 0 0 1.399966,0.520705 4.9055619,1.415066 17.822489 0 0 5.103368,0.154384 4.9055619,1.415066 17.822489 0 0 -4.237353,-2.848805 4.9055619,1.415066 17.822489 0 0 -1.083432,-0.308769 c 0.03449,-0.08545 0.06823,-0.170971 0.101857,-0.257155 a 1.415066,4.9055619 81.186047 0 0 1.26842,-0.147533 1.415066,4.9055619 81.186047 0 0 4.631078,-2.149965 1.415066,4.9055619 81.186047 0 0 -4.948525,-0.664127 c 0.181309,-0.70295 0.338325,-1.424869 0.471375,-2.163667 0.460072,-2.554685 0.112865,-5.058304 -0.846831,-7.361583 3.197297,-9.613122 5.625238,-30.48767 3.176763,-31.53418 C 94.223657,16.048384 84.99682,28.422016 80.828759,38.066727 80.269354,37.91026 79.701702,37.776282 79.127332,37.66615 79.083167,27.868286 76.146991,14.075933 73.468089,13.982744 Z" /><g
         id="g3"
         inkscape:label="tail"
         style="fill:url(#linearGradient18)"><path
           id="path8"
           style="fill:url(#linearGradient20);stroke-width:1.21744;stroke-linecap:round;stroke-linejoin:round"
           d="m 107.1017,93.670877 c 3.03465,-0.809964 7.56622,17.036613 -6.06338,24.546443 -12.425883,6.8466 -18.513109,10.58482 -15.659342,-0.15598 0.535832,-2.01673 -5.980197,-6.60022 9.615213,-7.33198 17.750719,-0.83291 7.004979,-15.69657 12.107509,-17.058483 z"
           sodipodi:nodetypes="sssss"
           inkscape:label="color" /><path
           id="path36"
           style="opacity:0.5;fill:url(#linearGradient36);stroke-width:0.797447;stroke-linecap:round;stroke-linejoin:round"
           d="m 107.10469,96.018117 c 1.8994,-0.79054 4.21188,13.805133 -4.71578,18.724223 -8.139191,4.48465 -10.762187,8.71093 -8.892913,1.67549 0.35098,-1.32099 -4.220655,-3.18584 5.823338,-5.10945 10.633155,-2.03644 5.641985,-14.398182 7.785355,-15.290263 z"
           sodipodi:nodetypes="sssss"
           inkscape:label="high1" /><path
           id="path37"
           style="opacity:0.5;fill:url(#radialGradient37);stroke-width:0.797447;stroke-linecap:round;stroke-linejoin:round"
           d="m 107.10469,96.018117 c 1.8994,-0.79054 4.21188,13.805133 -4.71578,18.724223 -8.139191,4.48465 -10.762187,8.71093 -8.892913,1.67549 0.35098,-1.32099 -4.220655,-3.18584 5.823338,-5.10945 10.633155,-2.03644 5.641985,-14.398182 7.785355,-15.290263 z"
           sodipodi:nodetypes="sssss"
           inkscape:label="high2" /></g><g
         id="g2"
         inkscape:label="body"
         style="fill:url(#linearGradient13)"><path
           style="fill:url(#linearGradient19);fill-opacity:1;stroke:none;stroke-width:0.853639;stroke-linecap:round;stroke-linejoin:round;stroke-opacity:1"
           d="M 84.630753,66.476032 C 73.294947,57.223381 53.416132,94.912155 55.055187,113.53834 c 1.142447,12.98274 25.391267,16.80136 38.75649,8.51411 14.651653,-9.08492 -4.730425,-51.943778 -9.180924,-55.576418 z"
           id="path3"
           sodipodi:nodetypes="ssss"
           inkscape:label="color" /><path
           style="opacity:0.5;fill:url(#linearGradient23);fill-opacity:1;stroke:none;stroke-width:0.632916;stroke-linecap:round;stroke-linejoin:round;stroke-opacity:1"
           d="M 78.940157,75.073836 C 70.535417,68.213617 55.79661,96.157313 57.01186,109.96738 c 0.847047,9.62583 18.82592,12.45708 28.735335,6.31264 10.863218,-6.73586 -3.507292,-38.512825 -6.807038,-41.206184 z"
           id="path23"
           sodipodi:nodetypes="ssss"
           inkscape:label="high1" /><path
           style="opacity:0.5;fill:url(#radialGradient36);stroke:none;stroke-width:0.632916;stroke-linecap:round;stroke-linejoin:round;stroke-opacity:1"
           d="M 78.940157,75.073836 C 70.535417,68.213617 55.79661,96.157313 57.01186,109.96738 c 0.847047,9.62583 18.82592,12.45708 28.735335,6.31264 10.863218,-6.73586 -3.507292,-38.512825 -6.807038,-41.206184 z"
           id="path35"
           sodipodi:nodetypes="ssss"
           inkscape:label="high2" /></g><g
         id="g8"
         inkscape:label="head"
         style="fill:#5e5eff;fill-opacity:1"
         transform="matrix(0.95080551,0,0,0.95080551,4.8652535,3.5966261)"><g
           id="g1"
           inkscape:label="color"
           style="display:none;fill:#5e5eff;fill-opacity:1"><path
             id="path2"
             style="display:inline;fill:#5e5eff;fill-opacity:1;stroke-width:1.46231;stroke-linecap:round;stroke-linejoin:round"
             d="M 94.184713,55.138422 C 92.262247,65.813489 85.548463,73.068405 74.079328,73.11017 62.288084,73.153108 50.301749,65.080387 53.312484,54.278526 56.104893,44.259974 62.610117,35.446882 74.079328,35.446882 c 11.469211,10e-7 21.948738,9.455771 20.105385,19.69154 z"
             sodipodi:nodetypes="sssss"
             inkscape:label="base" /><path
             d="M 93.281833,47.432515 C 96.650554,37.338469 99.213421,15.331778 96.635156,14.229793 93.887644,13.055471 83.579084,27.052885 79.447372,37.323577 77.672168,49.496865 82.539286,52.729153 93.281833,47.432515 Z"
             style="fill:#5e5eff;fill-opacity:1;stroke:none;stroke-width:1.31085;stroke-linecap:round;stroke-linejoin:round;stroke-opacity:1"
             id="path1"
             sodipodi:nodetypes="cscc"
             inkscape:label="ear-right" /><path
             d="M 71.950188,10.941725 C 67.726603,11.852398 62.851909,30.506278 61.969919,40.632936 61.872027,54.01857 78.013944,45.30072 78.098133,36.892076 78.277316,26.314804 74.91759,10.301905 71.950188,10.941725 Z"
             style="fill:#5e5eff;fill-opacity:1;stroke-width:1.25559;stroke-linecap:round;stroke-linejoin:round"
             id="path1-2"
             sodipodi:nodetypes="sccs"
             inkscape:label="ear-left" /><ellipse
             style="fill:#5e5eff;fill-opacity:1;stroke:none;stroke-width:1.05833;stroke-linecap:round;stroke-linejoin:round;stroke-opacity:1"
             id="ellipse4"
             cx="107.93157"
             cy="30.99379"
             rx="5.1593747"
             ry="1.4882812"
             transform="rotate(17.822489)"
             inkscape:label="whis4" /><ellipse
             style="fill:#5e5eff;fill-opacity:1;stroke:none;stroke-width:1.05833;stroke-linecap:round;stroke-linejoin:round;stroke-opacity:1"
             id="path4"
             cx="83.661697"
             cy="72.579132"
             rx="5.1593747"
             ry="1.4882812"
             transform="rotate(-8.8139532)"
             inkscape:label="whis3" /><ellipse
             style="fill:#5e5eff;fill-opacity:1;stroke:none;stroke-width:0.979622;stroke-linecap:round;stroke-linejoin:round;stroke-opacity:1"
             id="ellipse6"
             cx="-34.181229"
             cy="76.122391"
             rx="4.4779649"
             ry="1.4691837"
             transform="matrix(-0.9357578,0.35264337,0.26450514,0.96438428,0,0)"
             inkscape:label="whis2" /><ellipse
             style="fill:#5e5eff;fill-opacity:1;stroke:none;stroke-width:0.978086;stroke-linecap:round;stroke-linejoin:round;stroke-opacity:1"
             id="ellipse5"
             cx="-58.86031"
             cy="47.60482"
             rx="4.420805"
             ry="1.483518"
             transform="matrix(-0.9838808,-0.17882554,-0.13113902,0.99136399,0,0)"
             inkscape:label="whis1" /></g><path
           id="path5"
           style="display:inline;fill:url(#linearGradient11);fill-opacity:1;stroke-width:1.46231;stroke-linecap:round;stroke-linejoin:round"
           inkscape:label="colortest"
           d="m 72.152333,10.923494 c -0.06762,-0.0024 -0.134982,0.0038 -0.202245,0.01825 -4.08688,0.881197 -8.7833,18.375382 -9.882133,28.681775 -4.308717,3.517023 -7.147734,8.886095 -8.755616,14.654823 -0.208389,0.747653 -0.344846,1.482397 -0.414578,2.202115 a 4.4214579,1.4815709 10.651593 0 0 -1.034763,-0.231549 4.4214579,1.4815709 10.651593 0 0 -4.544024,0.679754 4.4214579,1.4815709 10.651593 0 0 4.155387,2.261683 4.4214579,1.4815709 10.651593 0 0 1.503625,0.181588 c 0.0084,0.05367 0.01683,0.107479 0.02594,0.160932 a 1.4621205,4.4802761 68.715276 0 0 -1.272558,0.407852 1.4621205,4.4802761 68.715276 0 0 -3.801338,2.995721 1.4621205,4.4802761 68.715276 0 0 4.578612,-0.162372 1.4621205,4.4802761 68.715276 0 0 1.294175,-0.566382 c 2.852749,6.588736 11.617201,10.934018 20.276365,10.902486 8.17045,-0.02975 13.927719,-3.720344 17.258545,-9.700066 a 5.1593747,1.4882812 17.822489 0 0 1.4724,0.547647 5.1593747,1.4882812 17.822489 0 0 5.367414,0.162372 5.1593747,1.4882812 17.822489 0 0 -4.456592,-2.996202 5.1593747,1.4882812 17.822489 0 0 -1.139488,-0.324744 c 0.03627,-0.08987 0.07176,-0.179818 0.107127,-0.270461 a 1.4882812,5.1593747 81.186047 0 0 1.334047,-0.155166 1.4882812,5.1593747 81.186047 0 0 4.87069,-2.261203 1.4882812,5.1593747 81.186047 0 0 -5.204562,-0.698489 c 0.19069,-0.73932 0.35583,-1.498592 0.495764,-2.275615 0.483876,-2.686864 0.118705,-5.32002 -0.890646,-7.74247 3.36272,-10.1105 5.916284,-32.065087 3.341125,-33.165744 C 93.98179,13.09601 84.277558,26.10985 79.893842,36.253577 79.305493,36.089014 78.708472,35.948105 78.104384,35.832274 78.057934,25.527471 74.96984,11.021504 72.152333,10.923494 Z" /><g
           id="g26"
           inkscape:label="high1"
           style="opacity:0.5"><path
             id="path24"
             style="display:inline;fill:url(#linearGradient27);stroke-width:1.01366;stroke-linecap:round;stroke-linejoin:round"
             d="m 84.923976,52.840295 c -1.401311,7.037163 -6.295079,11.819711 -14.655085,11.847244 -8.594796,0.02831 -17.331796,-5.293352 -15.13723,-12.4141 2.035424,-6.604378 6.77717,-12.414099 15.13723,-12.414099 8.360062,10e-7 15.998729,6.233384 14.655085,12.980955 z"
             sodipodi:nodetypes="sssss"
             inkscape:label="base" /><path
             d="m 92.336858,39.93972 c 2.257517,-6.764431 3.974999,-21.512011 2.247198,-22.250496 -1.84122,-0.786961 -8.749405,8.593276 -11.518234,15.476085 5.693547,1.755874 7.329685,4.125724 9.271036,6.774411 z"
             style="display:inline;fill:url(#linearGradient31);stroke:none;stroke-width:0.878453;stroke-linecap:round;stroke-linejoin:round;stroke-opacity:1"
             id="path25"
             sodipodi:nodetypes="cscc"
             inkscape:label="ear-right" /><path
             d="m 71.209162,14.356496 c -2.791078,0.601801 -6.01243,12.928872 -6.595276,19.620888 3.158667,-2.641847 7.090514,-2.568668 10.658032,-2.472079 0.118409,-6.989794 -2.101804,-17.571623 -4.062756,-17.148809 z"
             style="display:inline;fill:url(#linearGradient29);stroke-width:0.829733;stroke-linecap:round;stroke-linejoin:round"
             id="path26"
             sodipodi:nodetypes="sccs"
             inkscape:label="ear-left" /></g><g
           id="g33"
           inkscape:label="high2"
           style="opacity:0.5"><path
             id="path31"
             style="display:inline;fill:url(#radialGradient35);stroke-width:1.01366;stroke-linecap:round;stroke-linejoin:round"
             d="m 84.923976,52.840295 c -1.401311,7.037163 -6.295079,11.819711 -14.655085,11.847244 -8.594796,0.02831 -17.331796,-5.293352 -15.13723,-12.4141 2.035424,-6.604378 6.77717,-12.414099 15.13723,-12.414099 8.360062,10e-7 15.998729,6.233384 14.655085,12.980955 z"
             sodipodi:nodetypes="sssss"
             inkscape:label="base" /><path
             d="m 92.336858,39.93972 c 2.257517,-6.764431 3.974999,-21.512011 2.247198,-22.250496 -1.84122,-0.786961 -8.749405,8.593276 -11.518234,15.476085 5.693547,1.755874 7.329685,4.125724 9.271036,6.774411 z"
             style="display:inline;fill:url(#radialGradient34);stroke:none;stroke-width:0.878453;stroke-linecap:round;stroke-linejoin:round;stroke-opacity:1"
             id="path32"
             sodipodi:nodetypes="cscc"
             inkscape:label="ear-right" /><path
             d="m 71.209162,14.356496 c -2.791078,0.601801 -6.01243,12.928872 -6.595276,19.620888 3.158667,-2.641847 7.090514,-2.568668 10.658032,-2.472079 0.118409,-6.989794 -2.101804,-17.571623 -4.062756,-17.148809 z"
             style="display:inline;fill:url(#radialGradient33);stroke-width:0.829733;stroke-linecap:round;stroke-linejoin:round"
             id="path33"
             sodipodi:nodetypes="sccs"
             inkscape:label="ear-left" /></g></g></g><g
       id="g38"
       inkscape:label="bouche"
       transform="matrix(0.90810154,0.15823149,-0.15823149,0.90810154,11.878449,-16.682645)"><path
         style="fill:#062042;fill-opacity:1;stroke:none;stroke-width:0.301671;stroke-opacity:1"
         d="m 75.958003,63.021859 c 1.368164,-0.592618 5.093127,-1.085608 7.682329,-1.189051 2.389129,-0.09545 3.025855,7.974292 1.662702,8.339547 -1.363153,0.365256 -12.944193,-5.591526 -9.345031,-7.150496 z"
         id="path33-3"
         sodipodi:nodetypes="sszs" /><path
         style="fill:#553200;fill-opacity:1;stroke:none;stroke-width:0.250248;stroke-opacity:1"
         d="m 77.455318,63.556382 c 1.123853,-0.496455 4.183656,-0.909449 6.310508,-0.996106 1.962507,-0.07996 2.121731,4.232923 1.001994,4.538909 -1.119737,0.305987 -10.268968,-2.236804 -7.312502,-3.542803 z"
         id="path36-5"
         sodipodi:nodetypes="sszs" /><path
         style="fill:#ff8383;fill-opacity:1;stroke:none;stroke-width:0.264583;stroke-opacity:1"
         d="m 81.565107,67.882751 c -0.46175,-0.456823 -0.154668,-1.422154 0.142548,-1.943394 0.297216,-0.52124 0.97405,-1.006867 1.449938,-0.935445 0.475888,0.07142 -0.216357,1.161617 0.1637,1.064068 0.380057,-0.09755 0.340651,-1.127905 0.818515,-1.344701 0.331453,-0.150373 0.856448,-0.103385 1.075759,0.18709 0.543116,0.719351 0.360133,2.05857 -0.28396,2.689113 -0.804715,0.787786 -2.565945,1.075282 -3.3665,0.283269 z"
         id="path35-6"
         sodipodi:nodetypes="azzzaaaa" /><path
         style="fill:#f77474;fill-opacity:1;stroke:none;stroke-width:0.264583;stroke-opacity:1"
         d="m 84.926565,65.293948 c 0.217716,-0.03654 0.431111,0.231883 0.491108,0.444336 0.154527,0.547193 -0.100952,1.212684 -0.479414,1.637024 -0.467385,0.524043 -1.140929,0.909107 -1.941047,0.818515 -0.405093,-0.04587 0.531209,-0.459734 0.740778,-0.73835 0.494268,-0.657114 0.377666,-2.025411 1.188575,-2.161525 z"
         id="path37-2"
         sodipodi:nodetypes="aaasaa" /><path
         style="fill:#ffffff;fill-opacity:1;stroke:none;stroke-width:0.297112;stroke-opacity:1"
         d="m 82.437079,65.637305 c -0.157643,-0.23312 -0.657354,0.206016 -0.586109,0.509641 0.03454,0.147217 0.236984,0.04397 0.334917,-0.03089 0.124769,-0.09536 0.348571,-0.334751 0.251192,-0.478754 z"
         id="path38"
         sodipodi:nodetypes="aaaa" /></g><g
       id="g12"
       inkscape:label="bulle"
       transform="matrix(0.92178393,0,0,0.92178393,0.07342933,0.06232669)"><path
         id="path6"
         style="fill:url(#linearGradient7);stroke:#1b56a8;stroke-width:1.32292;stroke-linecap:round;stroke-linejoin:round;stroke-dasharray:none;stroke-opacity:1"
         d="M 33.217967,2.3018213 C 15.755945,2.3019263 1.6002593,12.03928 1.6002593,24.05088 c 0,12.0116 14.1556847,21.748955 31.6177077,21.74906 h 31.618225 l -9.993188,-5.882328 c 6.375796,-4.111595 9.99317,-9.855099 9.993188,-15.866732 0,-12.011739 -14.156001,-21.7491507 -31.618225,-21.7490587 z"
         sodipodi:nodetypes="csccccc" /><ellipse
         style="fill:url(#radialGradient9);fill-opacity:1;stroke:none;stroke-width:3.05889;stroke-linecap:round;stroke-linejoin:round"
         id="path7"
         cx="33.218227"
         cy="24.050884"
         rx="25.631149"
         ry="16.546692" /><path
         id="path14"
         style="fill:url(#linearGradient22);fill-opacity:1;stroke:none;stroke-width:2.94099;stroke-linecap:round;stroke-linejoin:round;stroke-dasharray:none;stroke-opacity:1"
         d="m 21.674878,20.631993 a 3.4188904,3.4188904 0 0 0 -3.418891,3.418891 3.4188904,3.4188904 0 0 0 3.418891,3.418891 3.4188904,3.4188904 0 0 0 3.418892,-3.418891 3.4188904,3.4188904 0 0 0 -3.418892,-3.418891 z m 11.543351,0 a 3.4188904,3.4188904 0 0 0 -3.418892,3.418891 3.4188904,3.4188904 0 0 0 3.418892,3.418891 3.4188904,3.4188904 0 0 0 3.418889,-3.418891 3.4188904,3.4188904 0 0 0 -3.418889,-3.418891 z m 11.54335,0 a 3.4188904,3.4188904 0 0 0 -3.418891,3.418891 3.4188904,3.4188904 0 0 0 3.418891,3.418891 3.4188904,3.4188904 0 0 0 3.418889,-3.418891 3.4188904,3.4188904 0 0 0 -3.418889,-3.418891 z" /></g></g></svg>
